Power Searching with Google

Google Search makes it amazingly easy to find information. Come learn about the powerful advanced tools we provide to help you find just the right information when the stakes are high.




Format                         : MPEG-4
Format profile                 : Base Media / Version 2
Codec ID                       : mp42
File size                      : 22.7 MiB
Duration                       : 2mn 44s
Overall bit rate mode          : Variable
Overall bit rate               : 1 157 Kbps


Video
ID                             : 1
Format                         : AVC
Format/Info                    : Advanced Video Codec
Format profile                 : High@L3.1
Format settings, CABAC         : Yes
Format settings, ReFrames      : 1 frame
Format settings, GOP           : M=1, N=60
Codec ID                       : avc1
Codec ID/Info                  : Advanced Video Coding
Duration                       : 2mn 44s
Bit rate                       : 1 021 Kbps
Maximum bit rate               : 3 409 Kbps
Width                          : 1 280 pixels
Height                         : 720 pixels
Display aspect ratio           : 16:9
Frame rate mode                : Constant
Frame rate                     : 29.970 fps
Color space                    : YUV
Chroma subsampling             : 4:2:0
Bit depth                      : 8 bits
Scan type                      : Progressive
Bits/(Pixel*Frame)             : 0.037
Stream size                    : 20.1 MiB (88%)
Tagged date                    : UTC 2012-07-01 16:40:49

Audio
ID                             : 2
Format                         : AAC
Format/Info                    : Advanced Audio Codec
Format profile                 : LC
Codec ID                       : 40
Duration                       : 2mn 44s
Bit rate mode                  : Variable
Bit rate                       : 132 Kbps
Maximum bit rate               : 187 Kbps
Channel(s)                     : 2 channels
Channel positions              : Front: L R
Sampling rate                  : 44.1 KHz
Compression mode               : Lossy
Stream size                    : 2.60 MiB (11%)
Title                          : IsoMedia File Produced by Google, 5-11-2011
Encoded date                   : UTC 2012-07-01 16:40:49
Tagged date                    : UTC 2012-07-01 16:40:49
